<mxfile host="app.diagrams.net" modified="2024-02-22T03:27:20.498Z" agent="Mozilla/5.0 (Macintosh; Intel Mac OS X 10_15_7) AppleWebKit/537.36 (KHTML, like Gecko) Chrome/121.0.0.0 Safari/537.36" version="22.1.21" etag="_0dtAiShOV4kCa3tLGRl" type="github">
  <diagram name="Page-1" id="K3fX7rnEa8d0O-pH7zhv">
    <mxGraphModel>
      <root>
        <mxCell id="0" />
        <mxCell id="1" parent="0" />
      </root>
    </mxGraphModel>
  </diagram>
</mxfile>
